/* XPM */
static char *_00df55bd09d4db6a19da55a4b31b745S5UTbIXpUfgwFobM[] = {
/* columns rows colors chars-per-pixel */
"64 64 66 1 ",
"  c None",
". c #010101",
"X c #080507",
"o c #030509",
"O c #0B0A0A",
"+ c #0D0E12",
"@ c #0B121C",
"# c #22141C",
"$ c #2E1C1D",
"% c #311F1F",
"& c #0E1522",
"* c #121A25",
"= c #131C2B",
"- c #291A21",
"; c #311F21",
": c #1A2333",
"> c #332121",
", c #382626",
"< c #332429",
"1 c #2D2A37",
"2 c #212B3F",
"3 c #4D383B",
"4 c #5A4345",
"5 c #5E4448",
"6 c #41536C",
"7 c #435371",
"8 c #475975",
"9 c #495B77",
"0 c #495C78",
"q c #676A7A",
"w c #6A6D7E",
"e c #C8A21F",
"r c #D3AF26",
"t c #D3AF2C",
"y c #D3B025",
"u c #D2AF31",
"i c #4E6280",
"p c #506788",
"a c #5E769A",
"s c #5F7A9D",
"d c #607B9F",
"f c #617CA0",
"g c #B37C89",
"h c #B7818C",
"j c #BF9C93",
"k c #97A1BC",
"l c #98A2BD",
"z c #C58F95",
"x c #C59096",
"c c #C39F97",
"v c #C9979D",
"b c #C59F99",
"n c #C99E98",
"m c #C3A097",
"M c #C5A099",
"N c #C99FA0",
"B c #CBA2A2",
"V c #B7C5E1",
"C c #B9C7E3",
"Z c #BAC8E5",
"A c #CDC7CE",
"S c #CEC8CF",
"D c #CFC9D0",
"F c #D4CED5",
"G c #D6D1D9",
"H c white",
/* pixels */
"                                                                ",
"                                                                ",
"                         ,>>>>,<,<>                             ",
"                        >>>>>>><>>%>                            ",
"                      ,>>;ccjcjccj>;>>                          ",
"                      ;%>ccmmccMccc>>$                          ",
"                      >%>cccmMcMmcm>>%                          ",
"                    >;%%>ccmMmMjccm>->>,                        ",
"                    >%%cccccccmmccccc>>>                        ",
"                    >>;cmmmcmcccccccj>>>                        ",
"                    >>%cmcccccccccccm>>>                        ",
"                    >>ccccmcccmnccccmj>>                        ",
"                    >>cmccccccccccMMmM>>                        ",
"                   ,%>cccccccccmccjmMj>%>                       ",
"                   z>>mcmmMmccmccccMMm<%z                       ",
"                   z%>mmMmcmcmmmmcmcjB>>z                       ",
"                   z>>m>>>>>cnmM5#,%3m,>x                       ",
"                   zccMSw>qFmcmmGw1wFmmmz                       ",
"                   zccmSw>pGmmmmSw>pFmmcz                       ",
"                   zzMmcMMMcmmmmmccmcmmzx                       ",
"                    zcmmccMcmmmmmmmcmmmz                        ",
"                    vzcmccMcmmmcmMcmcczz                        ",
"                     zznMcMMjmccMmcmczzH                        ",
"                     X.xmmccMMg5544544Xo                        ",
"                    ...Xxccchgg4545444...                       ",
"                   ooZZ..zmcccMccccz.VCC..                      ",
"                  ..ZZZ+.XxcbcMbnmz.oCCCC..                     ",
"                 ..VZZZ...XzzzzxzxX..ZZCC...                    ",
"                 X.CCZZ....XNBBBo....CCCC...                    ",
"                ..oVZZC......BB......CZCC...O                   ",
"                ...CZZZo.+O..BB.X...oCZZV...o                   ",
"                ....CZCCCClff+oaddZCCZZZ....O                   ",
"                .....CZZZZlffp7fdfZZZCC......                   ",
"                o....oZZZZlfffffdfZZCZC..X...                   ",
"                ...o..ZZZZlfffffffZZCZC......                   ",
"                MMbbbbZZZZlfffffffCZCZCmMnMMM                   ",
"                bMMMMMZZZZlfffffffCCCCZmMMnnM                   ",
"                bnnMnbZZZZlffffffdZCCZCnMMMMM                   ",
"                nMMMNMZZZZlfffffffCCZCZnnMnBM                   ",
"                MMbbnnZZZZlfffffffVCZCCbMMMMM                   ",
"                bMMMnnZZCClffffdffZZVVCncMMMM                   ",
"                ryutrtZZCClffi6affZCCCVMMMnMM                   ",
"                rutryylllllff7.9sdllklkMMMMMM                   ",
"                MMMMMb.......9d........nMMMMM                   ",
"                MMMnnM0999900ff09999899bMnMMM                   ",
"                 euMbMffdfffffffddfffs9cMMMM                    ",
"                  MMb.fffffd2::=dfffff9.nnM                     ",
"                   M .ddffff98*sfdfffs9. M                      ",
"                     .dffffff9=ffsffff9o                        ",
"                     .ffdffff0=sfffffs9o                        ",
"                     .dffffff0@dfffffs0o                        ",
"                     .dffffff8@sffffff0o                        ",
"                     .ddfffff9&sffffff0o                        ",
"                     .ddfffff0&dffffff0o                        ",
"                     .ddfffff0@sffffff0.                        ",
"                     .sdsdsff0@ffdssff0.                        ",
"                   X..99999900@90099899..O                      ",
"                   .........X............X                      ",
"                   ......................O                      ",
"                   o.......... ......o...O                      ",
"                                                                ",
"                                                                ",
"                                                                ",
"                                                                "
};
