/* XPM */
static char *e363def88eb94322d80291f86f1a970152gq2EkLFkOtA94K[] = {
/* columns rows colors chars-per-pixel */
"64 64 244 2 ",
"   c None",
".  c black",
"X  c #010100",
"o  c #000001",
"O  c #000101",
"+  c #010101",
"@  c #020101",
"#  c #010102",
"$  c #010202",
"%  c #010203",
"&  c #020202",
"*  c #030302",
"=  c #020203",
"-  c #030203",
";  c #020303",
":  c #040303",
">  c #010304",
",  c #010205",
"<  c #010305",
"1  c #020204",
"2  c #020304",
"3  c #030304",
"4  c #020305",
"5  c #020306",
"6  c #030405",
"7  c #020406",
"8  c #040404",
"9  c gray2",
"0  c #060504",
"q  c #060605",
"w  c #070605",
"e  c #070707",
"r  c #080507",
"t  c #000008",
"y  c #040609",
"u  c #080809",
"i  c #0A0A0B",
"p  c #0C0A08",
"a  c #0D0B08",
"s  c #0D0C0A",
"d  c #0B0B0C",
"f  c #0F0E0D",
"g  c #08111A",
"h  c #0B101B",
"j  c #0E131A",
"k  c #08111C",
"l  c #0C131C",
"z  c #0D151F",
"x  c #181010",
"c  c #301F1F",
"v  c #311F1F",
"b  c #0E1522",
"n  c #121A25",
"m  c #11192A",
"M  c #131C2B",
"N  c #161E2D",
"B  c #311F20",
"V  c #311F21",
"C  c #182130",
"Z  c #1B2536",
"A  c #312021",
"S  c #312121",
"D  c #322020",
"F  c #332120",
"G  c #322021",
"H  c #322121",
"J  c #332121",
"K  c #302022",
"L  c #302122",
"P  c #332122",
"I  c #322222",
"U  c #332222",
"Y  c #332323",
"T  c #342121",
"R  c #342221",
"E  c #342222",
"W  c #352222",
"Q  c #352322",
"!  c #342323",
"~  c #352323",
"^  c #362322",
"/  c #362323",
"(  c #362423",
")  c #352324",
"_  c #362324",
"`  c #352425",
"'  c #362424",
"]  c #372424",
"[  c #372524",
"{  c #372525",
"}  c #382525",
"|  c #382625",
" . c #382626",
".. c #392627",
"X. c #3A2727",
"o. c #3B2827",
"O. c #312429",
"+. c #3B2828",
"@. c #3B2829",
"#. c #3C2929",
"$. c #3E2C2B",
"%. c #412D2C",
"&. c #422F2F",
"*. c #442F2E",
"=. c #43302E",
"-. c #442F30",
";. c #463233",
":. c #473233",
">. c #483132",
",. c #4B3436",
"<. c #4F3A3D",
"1. c #503A3C",
"2. c #594245",
"3. c #475975",
"4. c #485A76",
"5. c #485B77",
"6. c #495B77",
"7. c #495B78",
"8. c #495C78",
"9. c #4A5C78",
"0. c #4A5D79",
"q. c #4C5F7C",
"w. c #4C607C",
"e. c #4C607D",
"r. c #4D607D",
"t. c #C8A21F",
"y. c #D3AF34",
"u. c #D1AD37",
"i. c #D2AE36",
"p. c #D2AE38",
"a. c #D2AE3A",
"s. c #D2AE3B",
"d. c #D0AC44",
"f. c #D1AC44",
"g. c #5F7A9C",
"h. c #5F7A9D",
"j. c #5F7A9E",
"k. c #607A9E",
"l. c #617B9E",
"z. c #607B9F",
"x. c #617B9F",
"c. c #617C9F",
"v. c #607BA1",
"b. c #617CA0",
"n. c #617CA1",
"m. c #607DA1",
"M. c #617DA1",
"N. c #627CA0",
"B. c #627DA1",
"V. c #627DA2",
"C. c #627EA2",
"Z. c #637FA3",
"A. c #BB9890",
"S. c #BB9990",
"D. c #BC9990",
"F. c #BD9B93",
"G. c #BF9C93",
"H. c #BF9C94",
"J. c #96A0BB",
"K. c #97A1BC",
"L. c #97A2BD",
"P. c #96A2BE",
"I. c #98A2BD",
"U. c #99A3BE",
"Y. c #C28F95",
"T. c #C58E95",
"R. c #C58F95",
"E. c #C59096",
"W. c #C09D94",
"Q. c #C19E95",
"!. c #C39D97",
"~. c #C29F96",
"^. c #C9979D",
"/. c #C39E98",
"(. c #C49D98",
"). c #C59F98",
"_. c #C59F99",
"`. c #C69F98",
"'. c #C79F98",
"]. c #C69E99",
"[. c #C69F99",
"{. c #C79F99",
"}. c #C69E9A",
"|. c #C79E9A",
" X c #C69F9A",
".X c #C79F9A",
"XX c #C99E98",
"oX c #C6A090",
"OX c #C3A097",
"+X c #C8A094",
"@X c #C8A194",
"#X c #C8A097",
"$X c #C9A197",
"%X c #C5A098",
"&X c #C5A099",
"*X c #C6A098",
"=X c #C7A098",
"-X c #C6A099",
";X c #C7A099",
":X c #C6A09A",
">X c #C7A09A",
",X c #C6A19A",
"<X c #C7A29B",
"1X c #C8A098",
"2X c #9BA6C1",
"3X c #9CA6C2",
"4X c #9DA8C3",
"5X c #9DA8C4",
"6X c #B5C3DF",
"7X c #B4C3E0",
"8X c #B5C3E1",
"9X c #B5C4E1",
"0X c #B6C4E1",
"qX c #B7C4E1",
"wX c #B7C5E1",
"eX c #B7C5E2",
"rX c #B7C6E3",
"tX c #B8C5E1",
"yX c #B8C5E2",
"uX c #B8C6E2",
"iX c #B8C6E3",
"pX c #B9C6E3",
"aX c #B9C7E3",
"sX c #BAC6E2",
"dX c #BAC7E2",
"fX c #BAC7E3",
"gX c #BBC7E3",
"hX c #B8C6E4",
"jX c #B8C7E4",
"kX c #B9C7E4",
"lX c #BAC7E4",
"zX c #BBC7E4",
"xX c #BAC8E3",
"cX c #B9C8E4",
"vX c #B9C8E5",
"bX c #BAC8E4",
"nX c #BBC8E4",
"mX c #BAC8E5",
"MX c #BBC8E5",
"NX c #BBC9E5",
"BX c #BAC8E6",
"VX c #BBC9E6",
"CX c #BCCAE5",
"ZX c #BCCAE7",
/* pixels */
"                                                                                                                                ",
"                                                                                                                                ",
"                                                  _ D.Q.W.W.W.W.Q.Q.J                                                           ",
"                                                ( B J G.A.W.A.W.W.J J J                                                         ",
"                                            ( J J B E E E v B ^ J J J B J L                                                     ",
"                                            J v J E v E E E ^ v J J _ J J c                                                     ",
"                                            J J J J E E v E E E J J J B J B                                                     ",
"                                        J B v J J J J J E E v E E E J J B J J ]                                                 ",
"                                        E v J E ^ E E E E E v E E E E B E B E E                                                 ",
"                                        E T J J E v E B B ^ ^ E E E E E E v E E                                                 ",
"                                        E J J J E E ^ E E E E E ] E E E T D v E                                                 ",
"                                        E E J J B ^ v E E B B ^ ] ^ E B T E E E                                                 ",
"                                        B E E B E B E E v ^ B v E E E v E E T E                                                 ",
"                                      ^ v v E E E E E v E E E E E B E E B ^ E v J                                               ",
"                                      T.E E E ^ B E E v E v E v E E ^ B E E E T Y.                                              ",
"                                      T.v T ^ E E E E ^ E v E E v E E E E v E T R.                                              ",
"                                      R.J J } J B E E E E E v E J J J J J J ( E E.                                              ",
"                                      R.Q.J ] J E E E E E B E E J ` O.J J J J OXR.                                              ",
"                                      R.OX} E J E B B E E E v E J J E ] E E ] OXR.                                              ",
"                                      R.R.*.J J E ^ } ^ v E E } +.] } ] J ] } R.E.                                              ",
"                                        R.] J E E E v E E E E E J J ( J E E ] R.                                                ",
"                                        ^.E J %.B E E E E E E J J J J J E E E E.                                                ",
"                                          +._ -.^ E v E E E J J J J Y E } } ]                                                   ",
"                                          r . E v E E E E B E _ +.X.E +.J <.9 9                                                 ",
"                                        . . $ x :.=.$.( J J ] +.:.:.,.<.:.2.. . 9                                               ",
"                                      t $ ZXMXcXcXpXMXpXkXkXkXkXjXjXjXjXpXpXMXMX. .                                             ",
"                                    . . VXVXcXMXcXMXMXwXjXkXjXjXkXMXwXjXjXjXMXMXMX. f                                           ",
"                                  . > kXMXMXcXMXMXcXMXMXMXkXMXcXMXMXMXMXjXMXMXcXMX. . d                                         ",
"                                  u . MXMXMXjXwXcXjXjXwXkXMXcXMXcXcXMXcXcXMXMXcXMX. . >                                         ",
"                                . . 6 pXMXMXMXMXjXjXjXMXMXMXMXMXMXMXcXMXMXMXMXMXMX. . . d                                       ",
"                                . . . MXZXMXcXjXkXkXMXcXjXkXkXMXjXMXcXcXjXcXcXMXMX> . . 9                                       ",
"                                . : . > MXMXMXjXkXMXMXMXMXcXMXMXjXjXMXcXMXMXMXcX. . . . u                                       ",
"                                6 6 . . . cXMXMXMXMXwXjXMXcXMXMXjXMXcXMXcXcXwX. . > . . .                                       ",
"                                $ . . . . 6 MXMXMXBXkXjXjXMXcXMXcXMXMXcXjXMXMX. . 6 . . .                                       ",
"                                6 . > > . 6 MXMXMXMXkXMXMXcXMXMXBXjXMXMXcXcXMX. . . . . 6                                       ",
"                                =X=X=X/.=X=XMXkXBXBXjXjXMXBXkXjXwXcXjXMXcXcXMX/. X,X=X=X=X                                      ",
"                                ,X=X=X=X=X=XMXMXMXcXjX8X8X9XjXkXpXpXcXpXpXcX6X1X,X X X X=X                                      ",
"                                 X X X/. X XMXMXBXMXjXjXjXwXjXkXcXcXgXcXcXpXMXXX X,X/.=X=X                                      ",
"                                 X=X=X=X X=XMXMXBXkXwXjXjXkXkXkXpXpXcXcXcXcXcXXX X=X/.,X,X                                      ",
"                                 X,X=X/. X=XMXMXZXkXkXkXMXMXMXMXpXMXpXgXcXcXpX X=X,X=X=X=X                                      ",
"                                 X=X=X=X X XMXMXcXMXcXwXkXMXkXkXMXMXMXwXpXwXpX X=X=X=X=X=X                                      ",
"                                =X=X=X=X=X+XMXMXMXMXpX6X6XwXqXwXwXwXwXcXpXpX6Xy.f.i.a.i.y.                                      ",
"                                1X=X=X=X1X+XP.I.U.U.U.U.2X5X2X5X5XP.P.P.I.I.P.y.u.u.d.a.i.                                      ",
"                                =X=X=X=X=X=X6 . . . . . . . . . . . . . . . . XX,X=X=X=X,X                                      ",
"                                =X=X X,X=X=Xg.3.e.w.w.e.e.e.e.q.0.0.6.4.4.4.4.1X=X&X=XoX,X                                      ",
"                                  +X=X=X X=Xg.g.n.N.c.n.n.z.z.z.n.n.c.n.n.c.4. X=X,Xi.t.                                        ",
"                                    =X=X X. g.h.n.c.n.c.z.C Z N z.n.c.c.c.z.4.. /./.,X                                          ",
"                                      =X  . h.h.N.n.c.n.n.4.n z.c.n.n.n.n.z.6..   =X                                            ",
"                                          . c.c.n.n.n.n.c.6.M c.c.n.c.n.n.z.0.t                                                 ",
"                                          . n.n.c.n.n.c.c.6.M z.N.c.n.n.n.n.0.>                                                 ",
"                                          . n.c.N.c.n.c.n.6.k z.N.n.n.c.c.z.4.>                                                 ",
"                                          . c.n.n.n.c.n.n.6.h h.n.n.c.n.N.c.0.y                                                 ",
"                                          . z.c.N.n.c.n.n.6.z z.n.n.c.n.n.n.0.y                                                 ",
"                                          . z.c.Z.n.n.c.N.6.b z.n.c.n.c.n.n.6.6                                                 ",
"                                          . c.c.c.c.c.n.N.6.k c.n.c.c.n.n.n.9.>                                                 ",
"                                          . z.z.c.c.z.c.Z.0.h c.N.z.z.c.n.n.9.>                                                 ",
"                                      r . . 0.0.9.0.0.4.0.9.j 0.6.6.0.0.4.0.9.. . s                                             ",
"                                      : . . . . . . . 6 . 9 . . . : . $ . . . . . 9                                             ",
"                                      . . . $ . . . . . . . . . . . : $ . . > . . s                                             ",
"                                      9 . $ . $ . 9 6 . . .   : . . . . 9 9 6 . . a                                             ",
"                                                                                                                                ",
"                                                                                                                                ",
"                                                                                                                                ",
"                                                                                                                                "
};
