/* XPM */
static char *c800164a89e445bed3c2783191a50485Z58Ar4ivlzE2LEDN[] = {
/* columns rows colors chars-per-pixel */
"64 64 5 1 ",
"  c None",
". c black",
"X c #0C000C",
"o c #F300F3",
"O c magenta",
/* pixels */
"                                                                ",
"                                                                ",
"                                                                ",
"                                                                ",
"                                                                ",
"                                                                ",
"                                                                ",
"                                                                ",
"                                                                ",
"                                                                ",
"                                                                ",
"                                                                ",
"                                                                ",
"                                                                ",
"                                                                ",
"                                                                ",
"                                                                ",
"                                                                ",
"                                                                ",
"                                                                ",
"                                                                ",
"                     ............oOOOOOOOOOOOO                  ",
"                     ............oOOOOOOOOOOOO                  ",
"                     ............oOOOOOOOOOOOO                  ",
"                     ............oOOOOOOOOOOOO                  ",
"                     ............oOOOOOOOOOOOO                  ",
"                     ............oOOOOOOOOOOOO                  ",
"                     ............oOOOOOOOOOOOO                  ",
"                     ............oOOOOOOOOOOOO                  ",
"                     ............oOOOOOOOOOOOO                  ",
"                     ............oOOOOOOOOOOOO                  ",
"                     ............oOOOOOOOOOOOO                  ",
"                     ............oOOOOOOOOOOOO                  ",
"                     OOOOOOOOOOOOX............                  ",
"                     OOOOOOOOOOOOX............                  ",
"                     OOOOOOOOOOOOX............                  ",
"                     OOOOOOOOOOOOX............                  ",
"                     OOOOOOOOOOOOX............                  ",
"                     OOOOOOOOOOOOX............                  ",
"                     OOOOOOOOOOOOX............                  ",
"                     OOOOOOOOOOOOX............                  ",
"                     OOOOOOOOOOOOX............                  ",
"                     OOOOOOOOOOOOX............                  ",
"                     OOOOOOOOOOOOX............                  ",
"                     OOOOOOOOOOOOX............                  ",
"                                                                ",
"                                                                ",
"                                                                ",
"                                                                ",
"                                                                ",
"                                                                ",
"                                                                ",
"                                                                ",
"                                                                ",
"                                                                ",
"                                                                ",
"                                                                ",
"                                                                ",
"                                                                ",
"                                                                ",
"                                                                ",
"                                                                ",
"                                                                ",
"                                                                "
};
