/* XPM */
static char *_adc43dbb7e54746f808fd564acd3989C06j41nNTAgHWkFb[] = {
/* columns rows colors chars-per-pixel */
"64 64 80 1 ",
"  c #175B11",
". c #1C5E12",
"X c #1C6213",
"o c #1C6414",
"O c #1F6414",
"+ c #1D6715",
"@ c #1F6A16",
"# c #216515",
"$ c #226615",
"% c #226816",
"& c #216B17",
"* c #256A17",
"= c #246D18",
"- c #2A7019",
"; c #86430E",
": c #934E19",
"> c #A35D26",
", c #B16C3A",
"< c #B97D48",
"1 c #25831D",
"2 c #23841D",
"3 c #29871F",
"4 c #278C1F",
"5 c #278A20",
"6 c #2C8920",
"7 c #288D21",
"8 c #2A8E21",
"9 c #2D8C21",
"0 c #2C8F20",
"q c #368A21",
"w c #398E22",
"e c #2D9022",
"r c #2F9123",
"t c #309223",
"y c #329324",
"u c #3B9224",
"i c #3A9324",
"p c #399625",
"a c #3C9625",
"s c #3D9726",
"d c #3B9926",
"f c #3B9B27",
"g c #3C9826",
"h c #3D9927",
"j c #3C9C27",
"k c #3F9E28",
"l c #409D28",
"z c #419E28",
"x c #409F28",
"c c #409F29",
"v c #439F29",
"b c #41A029",
"n c #44A02A",
"m c #43A12C",
"M c #45A12D",
"N c #47A22E",
"B c #47A230",
"V c #48A330",
"C c #49A532",
"Z c #4BA534",
"A c #4DA536",
"S c #50A739",
"D c #56A83D",
"F c #5CAC44",
"G c #69B04C",
"H c #6FB359",
"J c #72B455",
"K c #70B45B",
"L c #73B55D",
"P c #7DB95F",
"I c #C88C59",
"U c #FFE158",
"Y c #FEE266",
"T c #8D8D8D",
"R c #9E9B9A",
"E c #9D9D9D",
"W c #D0E1AB",
"Q c #CBE2B6",
"! c #D7E5B1",
"~ c #DFE8B3",
/* pixels */
"bMFMbbbbbbbbbbbbbbbbbbbbbbbbbbjbvxbbbbbbbbbbbbbbbbbbbbbbbbbbbbbb",
"MGWJbbbbbbbbbbbbbbbbbbbbbbbbvxyjexbbbbbbbbbbbbbbbbbbbbbbvvbbbbbb",
"FWY~bbbbbbbbbbbbbbjvbhejbbbbbbxtvxbbbbbbbbbbbbbbbbbbbbbbk9kbbbbb",
"MJ~Pbbbbbbbbbbbbxvtkp=hbbbbbvvxxvxbbbbbbbbbkbbbbbbbbbbbbp%dbbbbb",
"bbbbbbbbbbvbyvvxbbvyvvxxbbbbbbbbbbbbkejxj75hbbbbbbbbZmbb6vbbbbbb",
"bbbbbbbbbbjrvbbxbbjxjhtxbbbbbbbbbbbbkeek92@pbbbbbbbbLAbb%hbNbbbb",
"bbbbbb;;;;;;;;;;;;;;;;;;;;;;;;;;;;;;;;;;;;;;;;;;;;;;;;;;;;;Lbbbb",
"bbbbbb;:::::::::::::::::::::::::::::::::::::::::::::::::::;Dbbbb",
"bkbkbb;:::::::::::::::::::::::::::::::::::::::::::::::::::;bbxxb",
"kykkbb;:::::::::::::::::::::::::::::::::::::::::::::::::::;bbvbb",
"ejv9bb;:::>>>>>>>>>>>>>>>>>>>>>>>>>>>>>>>>>>>>>>>>>>>>>:::;bjekb",
"9xh@bb;:::>,,,,,,,,,,,,,,,,,,,,,,,,,,,,,,,,,,,,,,,,,,,>:::;bp%db",
"Xp3jbS;:::>,,,,,,,,,,,,,,,,,,,,,,,,,,,,,,,,,,,,,,,,,,,>:::;bbv9h",
"Oi=pVK;:::>,,,<,,,<,,,<,,,<,,,<,,,<,,,<,,,<,,,<,,,<,,,>:::;bbh=p",
"hbhVVV;:::>,,<I<,<I<,<I<,<I<,<I<,<I<,<I<,<I<,<I<,<I<,,>:::;bbbhb",
"bbVLLV;:::>,,<I<,<I<,<I<,<I<,<I<,<I<,<I<,<I<,<I<,<I<,,>:::;bbbbb",
"bVLZbb;:::>,,<I<,<I<,<I<,<I<,<I<,<I<,<I<,<I<,<I<,<I<,,>:::;bbbbb",
"bbVbbb;:::>,,<I<,<I<,<I<,<I<,<I<,<I<,<I<,<I<,<I<,<I<,,>:::;Dbbbb",
"bbbbbb;:::>,,<I<,<I<,<I<,<I<,<I<,<I<,<I<,<I<,<I<,<I<,,>:::;!Dbbb",
"bbbbbb;:::>,,<I<,<I<,<I<,<I<,<I<,<I<,<I<,<I<,<I<,<I<,,>:::;UQDbb",
"bbbbbb;:::>,,<I<,<I<,<I<,<I<,<I<,<I<,<I<,<I<,<I<,<I<,,>:::;Qbbbb",
"bbbbbb;:::>,,<I<,<I<,<I<,<I<,<I<,<I<,<I<,<I<,<I<,<I<,,>:::;Dbbbb",
"bbbbvx;:::>,,<I<,<I<,<I<,<I<,<I<,<I<,<I<,<I<,<I<,<I<,,>:::;bbbbb",
"bbbbev;:::>,,<I<,<I<,<I<,<I<,<I<,<I<,<I<,<I<,<I<,<I<,,>:::;bbbbb",
"bbbbxt;:::>,,<I<,<I<,<I<,<I<,<I<,<I<,<I<,<I<,<I<,<I<,,>:::;bbbbb",
"bbbbvx;:::>,,<I<,<I<,<I<,<I<,<I<,<I<,<I<,<I<,<I<,<I<,,>:::;bbbbb",
"bbbbbb;:::>,,<I<,<I<,<I<,<I<,<I<,<I<,<I<,<I<,<I<,<I<,,>:::;tbbbb",
"bbbbxb;:::>,,<I<,<I<,<I<,<I<,<I<,<I<,<I<,<I<,<I<,<I<,,>:::;bekbb",
"bkeefj;:::>,,<I<,<I<,<I<,<I<,<I<,<I<,<I<,<I<,<I<,<I<,,>:::;bvbbb",
"kkkxee;:::>,,<I<,<I<,<I<,<I<,<I<,<I<,<I<,<I<,<I<,<I<,,>:::;bbbbb",
"eeeff0;:::>,,<I<,<I<,<I<,<I<,<I<,<I<,<I<,<I<,<I<,<I<,,>:::;bbbbb",
"kh9ed-;:::>,,<I<,<I<,<I<,<I<,<I<,<I<,<I<,<I<,<I<,<I<,,>:::;bbbbb",
"bbh.4d;:::>,,<I<,<I<,<I<,<I<,<I<,<I<,<I<,<I<,<I<,<I<,,>:::;bbbbb",
"bvh$ev;:::>,,<I<,<I<,<I<,<I<,<I<,<I<,<I<,<I<,<I<,<I<,,>:::;bbbbb",
"bbbhvM;:::>,,<I<,<I<,<I<,<I<,<I<,<I<,<I<,<I<,<I<,<I<,,>:::;bbbbb",
"bbbbVL;:::>,,<I<,<I<,<I<,<I<,<I<,<I<,<I<,<I<,<I<,<I<,,>:::;bbbbb",
"ve9dbV;:::>,,<I<,<I<,<I<,<I<,<I<,<I<,<I<,<I<,<I<,<I<,,>:::;hbbbb",
"kk57bb;:::>,,<I<,<I<,<I<,<I<,<I<,<I<,<I<,<I<,<I<,<I<,,>:::;tbbbx",
"vd+2xj;:::>,,<I<,<I<,<I<,<I<,<I<,<I<,<I<,<I<,<I<,<I<,,>:::;jbbxt",
"ef.2ve;:::>,,<I<,<I<,<I<,<I<,<I<,<I<,<I<,<I<,<I<,<I<,,>:::;bbvvx",
" 6d$d1;:::>,,<I<,<I<,<I<,<I<,<I<,<I<,<I<,<I<,<I<,<I<,,>:::;jbbbb",
"X6vh2@;:::>,,<I<,<I<,<I<,<I<,<I<,<I<,<I<,<I<,<I<,<I<,,>:::;pxbbb",
"dkbb%p;:::>,,<I<,<I<,<I<,<I<TTTTTTTT,<I<,<I<,<I<,<I<,,>:::;jevbb",
"vbbbpb;:::>,,<I<,<I<,<I<,<ITEEEEEEEET<I<,<I<,<I<,<I<,,>:::;bjbbb",
"bbbbvb;:::>,,<I<,<I<,<I<,<TETTTTTTTTETI<,<I<,<I<,<I<,,>:::;bbbbb",
"bbbbkb;:::>,,<I<,<I<,<I<,<TET<I<,<ITETI<,<I<,<I<,<I<,,>:::;bbbbb",
"bbxkbb;:::>,,<I<,<I<,<I<,TET,<I<,<I<TET<,<I<,<I<,<I<,,>:::;bbbbb",
"bbvybb;:::>,,<I<,<I<,<I<,TET,<TTTTI<TET<,<I<,<I<,<I<,,>:::;bbbbb",
"bbd%bx;:::>,,<I<,<I<,<I<,TET,TEEEET<TET<,<I<,<I<,<I<,,>:::;bbbbb",
"bbnh4v;:::>,,<I<,<I<,<I<,<TETEETTEETRTI<,<I<,<I<,<I<,,>:::;bbbbb",
"bbbb%h;:::>,,<I<,<I<,<I<,<ITTEETTEETT<I<,<I<,<I<,<I<,,>:::;bbbbb",
"bbbbhb;:::>,,,<,,,<,,,<,,,<,TEEEEEET,,<,,,<,,,<,,,<,,,>:::;bbbbb",
"bbbbbV;:::>,,,,,,,,,,,,,,,,,,TEEEET,,,,,,,,,,,,,,,,,,,>:::;bbbbb",
"bbbbVL;:::>,,,,,,,,,,,,,,,,,,,TTTT,,,,,,,,,,,,,,,,,,,,>:::;bbbbb",
"bbbbbA;:::>>>>>>>>>>>>>>>>>>>>>>>>>>>>>>>>>>>>>>>>>>>>>:::;bbbbb",
"bbbbbM;:::::::::::::::::::::::::::::::::::::::::::::::::::;bbbbb",
"xbxbbb;:::::::::::::::::::::::::::::::::::::::::::::::::::;xxbbb",
"j9exbb;:::::::::::::::::::::::::::::::::::::::::::::::::::;fbbbj",
"99xbbb;;;;;;;;;;;;;;;;;;;;;;;;;;;;;;;;;;;;;;;;;;;;;;;;;;;;;9xbbr",
"4ejbbbbbxbbbbbbbtvbbbfebbkvvva@2w@drekbbbbbbbbbbbbbbbbxxybfe$kb7",
"@dkjbbbbvxthbbbb$pkbbbbbbbbbbk%4bh2Obbbbbbbbbxjebbbbbbveh*q#bu#.",
"idtebbbbbbjybbbbd9vkbbbbbbbbbbhvje$ibbbbbbbbbjykbbbbbbxvxa*wi*ii",
"@9kkbbbbbbbxbbbbp=hbbbbbbbbbbbbbbvdbbbbbbbbbkykbbbbbbbbbxvxxtpa*",
"dkvkbbbbbbbbbbbbvdbbbbbbbbbbbbbbbxbbbbbbbbbbbkbbbbbbbbbbkvvxbvxa"
};
