/* XPM */
static char *_67cf0091c4548ddd6ee7a2475d03e3aASCge5o11bVuOiFW[] = {
/* columns rows colors chars-per-pixel */
"64 64 52 1 ",
"  c black",
". c #005B00",
"X c #005E00",
"o c #006200",
"O c #006600",
"+ c #006800",
"@ c #006D00",
"# c #007100",
"$ c #6D6D6D",
"% c #994100",
"& c #A74D0A",
"* c #B85D1B",
"= c #008400",
"- c #008800",
"; c #008C00",
": c #009302",
"> c #009305",
", c #009404",
"< c #009907",
"1 c #009D07",
"2 c #009808",
"3 c #009B09",
"4 c #009F09",
"5 c #009E0A",
"6 c #00A008",
"7 c #00A10B",
"8 c #00A00C",
"9 c #00A20D",
"0 c #00A212",
"q c #00A215",
"w c #00A31B",
"e c #00A51A",
"r c #00A51C",
"t c #00A71D",
"y c #00A721",
"u c #00A724",
"i c #00A929",
"p c #00AB2D",
"a c #00AA2E",
"s c #00AE38",
"d c #29B142",
"f c #39B451",
"g c #3BB554",
"h c #41B54C",
"j c #42B656",
"k c #57BA58",
"l c #FFE24A",
"z c #FFE35C",
"x c #CAE2AA",
"c c #C2E3B5",
"v c #D2E6B0",
"b c #DCE9B2",
/* pixels */
"7qsq777777777777777777777777774748777777777777777777777777777777",
"qdxh77777777777777777747777774,1:4777777777777777777777777777777",
"sxzb77777777777777484<>67777774:4777777777777777777777777:477777",
"ehbk77777777777774:43O<777777884777777777777777777777778,+<77777",
"777777777784:477774:77787777777777884;474;;177777777y588;4777777",
"77777777774:477777447<:47777777777744::4;=O377777777ju88O38e7777",
"777777%%%%%%%%%%%%%%%%%%%%%%%%%%%%%%%%%%%%%%%%%%%%%%%%%%%%%j7777",
"777777%&&&&&&&&&&&&&&&&&&&&&&&&&&&&&&&&&&&&&&&&&&&&&&&&&&&%a7777",
"747788%&&&&&&&&&&&&&&&&&&&&&&&&&&&&&&&&&&&&&&&&&&&&&&&&&&&%77777",
"1>4478%&&&&&&&&&&&&&&&&&&&&&&&&&&&&&&&&&&&&&&&&&&&&&&&&&&&%87777",
":47;77%&&&*********************************************&&&%87;77",
";44+77%&&&*    $                                 $    *&&&%5<+<7",
"X,;18i%&&&*    $                                 $    *&&&%774;<",
"O,@3rf%&&&*    $                                 $    *&&&%77<@3",
"343wre%&&&*    $                                 $    *&&&%77834",
"77ejje%&&&*    $                                 $    *&&&%77885",
"7egy77%&&&*    $                                 $    *&&&%77777",
"78r877%&&&*    $$$$$$$$$$$$$$$$$$$$$$$$$$$$$$$$$$$    *&&&%p7777",
"777777%&&&*     $                               $     *&&&%vp077",
"777777%&&&*     $                               $     *&&&%lcp77",
"777777%&&&*     $                               $     *&&&%c7777",
"777777%&&&*     $                               $     *&&&%p7777",
"777778%&&&*     $                               $     *&&&%77777",
"7777:4%&&&*     $                               $     *&&&%77777",
"77774:%&&&*     $$$$$$$$$$$$$$$$$$$$$$$$$$$$$$$$$     *&&&%77777",
"777777%&&&*      $                             $      *&&&%77777",
"777777%&&&*      $                             $      *&&&%,4777",
"777777%&&&*      $                             $      *&&&%7:477",
"74:;44%&&&*      $                             $      *&&&%77777",
"4447;:%&&&*      $                             $      *&&&%77777",
"::;14;%&&&*      $                             $      *&&&%77777",
"4<:;3@%&&&*      $$$$$$$$$$$$$$$$$$$$$$$$$$$$$$$      *&&&%77777",
"77<X;3%&&&*       $                           $       *&&&%77777",
"773o:4%&&&*       $                           $       *&&&%77777",
"77874q%&&&*       $                           $       *&&&%77777",
"7785yg%&&&*       $                           $       *&&&%77777",
"4:;37e%&&&*       $                           $       *&&&%47777",
"81;;80%&&&*       $                           $       *&&&%:7774",
"4<O=44%&&&*       $$$$$$$$$$$$$$$$$$$$$$$$$$$$$       *&&&%4774:",
":3o=4:%&&&*        $                         $        *&&&%77784",
".;<O<=%&&&*        $                         $        *&&&%48777",
"O=43=+%&&&*        $                         $        *&&&%:4877",
"<477@,%&&&*        $                         $        *&&&%4:477",
"7777<8%&&&*        $                         $        *&&&%44777",
"777777%&&&*        $                         $        *&&&%78777",
"777777%&&&*        $$$$$$$$$$$$$$$$$$$$$$$$$$$        *&&&%77777",
"777477%&&&*         $                       $         *&&&%77777",
"774:77%&&&*         $                       $         *&&&%77777",
"773O47%&&&*         $                       $         *&&&%77777",
"7744;7%&&&*         $                       $         *&&&%77777",
"7758+7%&&&*         $                       $         *&&&%77777",
"7788<8%&&&*         $                       $         *&&&%77777",
"77778t%&&&*         $$$$$$$$$$$$$$$$$$$$$$$$$         *&&&%77777",
"7777tf%&&&*          $                     $          *&&&%77777",
"77778y%&&&*********************************************&&&%77777",
"777780%&&&&&&&&&&&&&&&&&&&&&&&&&&&&&&&&&&&&&&&&&&&&&&&&&&&%77777",
"844777%&&&&&&&&&&&&&&&&&&&&&&&&&&&&&&&&&&&&&&&&&&&&&&&&&&&%77777",
"1;>477%&&&&&&&&&&&&&&&&&&&&&&&&&&&&&&&&&&&&&&&&&&&&&&&&&&&%17774",
":;4877%%%%%%%%%%%%%%%%%%%%%%%%%%%%%%%%%%%%%%%%%%%%%%%%%%%%%;344:",
";:47777777777777:47771:477777<O=;+3,:4777777777777777777:41:+17;",
"O<44777784:47777O3777777777784+;84=o47777777841:7777777,,+=O4>OX",
">4::7777844:7777<;477777777784344;@>7777777784:17777777783@>,@>>",
"O;34777777747777>@477777777777777434777777777,77777777778844:33+",
",47777777777777742477777777777777777777777777477777777788888488,"
};
