/* XPM */
static char *_7d93a3e351246b0fc4e10ec074378c1fXQAgeykImn1H0tN[] = {
/* columns rows colors chars-per-pixel */
"64 64 115 2 ",
"   c #175B11",
".  c #1C5E12",
"X  c #1C6213",
"o  c #1A6314",
"O  c #1C6414",
"+  c #1F6414",
"@  c #1E6514",
"#  c #1D6715",
"$  c #1F6816",
"%  c #216515",
"&  c #226615",
"*  c #226816",
"=  c #226A16",
"-  c #226A17",
";  c #256A17",
":  c #226C17",
">  c #246D17",
",  c #246D18",
"<  c #276D18",
"1  c #256A1C",
"2  c #286E18",
"3  c #2A7019",
"4  c #2B731A",
"5  c #247E1B",
"6  c #24801C",
"7  c #25831D",
"8  c #23841D",
"9  c #23861E",
"0  c #25851E",
"q  c #2A841E",
"w  c #23881F",
"e  c #278C1F",
"r  c #2A881F",
"t  c #278A20",
"y  c #288920",
"u  c #2C8920",
"i  c #2C8B21",
"p  c #288D21",
"a  c #2A8E21",
"s  c #2D8C21",
"d  c #2C8F20",
"f  c #2C8F22",
"g  c #368A21",
"h  c #368C23",
"j  c #328D24",
"k  c #398E22",
"l  c #2D9022",
"z  c #2F9123",
"x  c #2F9322",
"c  c #329123",
"v  c #329322",
"b  c #329324",
"n  c #399224",
"m  c #3A9324",
"M  c #399424",
"N  c #3A9525",
"B  c #3C9425",
"V  c #3C9625",
"C  c #3B9926",
"Z  c #3B9B27",
"A  c #3D9927",
"S  c #3F9C27",
"D  c #369229",
"F  c #3E9828",
"G  c #3D9D28",
"H  c #3F9E28",
"J  c #409D28",
"K  c #419E28",
"L  c #409F28",
"P  c #409F29",
"I  c #439F29",
"U  c #41A029",
"Y  c #44A02A",
"T  c #43A12C",
"R  c #45A12D",
"E  c #47A22E",
"W  c #48A12E",
"Q  c #47A230",
"!  c #49A230",
"~  c #4AA331",
"^  c #49A532",
"/  c #4BA235",
"(  c #4BA534",
")  c #4EA737",
"_  c #50A737",
"`  c #50A739",
"'  c #52A739",
"]  c #51A83A",
"[  c #54A83B",
"{  c #56A83B",
"}  c #57A93C",
"|  c #56A83D",
" . c #5CAC44",
".. c #60AD45",
"X. c #69B04C",
"o. c #6EAC5B",
"O. c #6EB35A",
"+. c #6FB35A",
"@. c #72B455",
"#. c #70B45B",
"$. c #72B45C",
"%. c #73B55D",
"&. c #7DB95F",
"*. c #75B762",
"=. c #77B763",
"-. c #79B966",
";. c #FFE158",
":. c #FFE25F",
">. c #FEE266",
",. c #C4DFAE",
"<. c #D0E1AB",
"1. c #CBE2B6",
"2. c #D7E5B1",
"3. c #DFE8B3",
"4. c #E6ECB9",
/* pixels */
"U R  .R U U U U U U U U U U U U U U U U U U U U U U U U U U H H H U U U U U U U U U U U U U U U U U U U U U U U U U U Y U U U U ",
"R X.<.@.U U U U U U U U U U U U U U U U U U U U U U U U H U v H c H U U U U U U U U U U U U U U U U U U U U U U U H U S U U U U ",
"..,.>.4.U U U U U U U U U U U U U U U K H F v U U U U U U U H c H U U U U U U U U U U T U U U U U U U U U U U U H s U U U U U U ",
"Y @.3.&.U U U U U U U U U U U U K H v H M , M U U U U U U U H H U U U U U U U U U U U H U U U U U U U U U U U U M - H H U U U U ",
"Y U U U U U U U U U U S v K U U U U K v U U U U U U U U U U U U U U U U H z G H C p t H U U U U U U U U ( U U U q H U K U U U U ",
"U U U U U U U U U U U v K K U U U U H H U C v S U U U U U U U U U U U U H a z H a y & M U U U U U U U U %.) U U & H T W U U U U ",
"U U U U U U U U U U U S U U U U U K x M M > F H U U U U U U U U U U U U K H y H t O M U U U U U U U U U ' %.Q U K U ) %.U U U U ",
"U U U U U U U U U U U U U U U U U U C = K A U U U U U U U U U U U U U U U F - M a M H U U U U H U U U U ) *.~ H %.' %.| U U U U ",
"U H U U U U U U U U U U U U U U U U K v U U U U U U U U U U H R U U U U U U U U U H y V U H a t U U U U U U ^ -.K U U U U U U U ",
"S b H H U U U U U U U U U U U U U U U K U U U U U U U U U U U K U U U U U U U U U G & y H s t a U U U U U U Q *.H R U U U H U U ",
"l H H s U U U U U U U U U U U U U U U U U U U U U U U U U U H H U U U U U U U U U H F s H q = M U U U U U U U ~ U U U U H s H U ",
"l H C $ U U U U U U U U U U U U U U U T U U U U U U U U U H v U U U U U U U U U U U C O V $ k U U U U U U U U U U U U U M & H U ",
". M y S U ] =.-.U U U U U U U U R @.3.=.U U U U U U U U S v H H U Z l U U U U U U U U U U U U U U U U U U U U U U U U U U H y H ",
"# n : C ~ +.) ~ U U U U U U U U  .<.>.3.U U U U U U U U U U H U H c H U U U U U U U U U U U U U U U U U H H U U U U U U U H , M ",
"A K A Q ~ R U U ~ ~ U U U U U U R X.<.@.U U U U U U U U U H v L U U U U U U U U U U U U U U U U U U U U z G U U U U U U U H H H ",
"U U ~ %.%.~ U U -.=.R U U U U U U R  .Q U U U U U H v S H l H U U U U U U U U U U U U U U U U U U U U U H c H U U U K R I U H K ",
"U R +.~ U U ~ %.U U U U U U U U U U U U U U U U K v S U U U U U U H l H U U H H J l l Z U U U U U U U U U U U U U U U U U U U U ",
"U U ~ R U U U ~ U U U U U U U U U U U U U U U U R U U U U S U U H c K U U U l a J Z a Z U U U K U U U U U U U U U U U | U U U U ",
"U U U U U U U U U U U U U U U U U U U U U U U U U U U U S v U U U H U U U U S a s C 4 q U S l J U U U U U U U U U T X.2.| T U U ",
"U U U U U U U U U U U U U U U U U U U U U U U U U U U U l A U U U U U U U U L L o s n O S l a K U U U U U U U U U | 2.;.1.| U U ",
"U U U U U U U U U U U U H U U H U U K H H U U U U U U U U U U U U U U U U U U U O s S U 5 = A U U U U U U U U U U U | 1.U U U U ",
"U U U U U U U U U U U U v H K z H U U H z H U U U R U U U U U U U U U U U U U U A S U l & V I K U U U U U U U U U U R | U U U U ",
"U U U U U H U U U U U U Z c H H z H H f H U U U ~ +.) T T Q U U U U U U U U U U U U U L L U U U U U U U U U U U U U U U U U U U ",
"U U U U l H v U U U U U H H z H s H v H U U U U U ] %.( ( +.Q U U U U U U U U U U U U U U U U U U U U U U U U U U U U U U U U U ",
"U U U U L v H T U U U U U U U U U H z U U U U U U U U U %.~ U U U U U U U U U U U U U U U U U U U U U U U U U U U U U U U U U U ",
"U U U U L L U S U U U U U U U U U U H U U U U U U T ~ U ~ U U U U U U U U U U U U { E U U U U U U U U U U U U U U U U S U U U U ",
"U U U U U U U U U U U U U U U U U U U U U U U U K ~ O.' U U U U U U U U U U U U @.<.X.E U U U U U U U U U U U U U U U x J U U U ",
"U U U U U U U U U U U U U U U U U U U U U U U U U K ' *.U U U U U U U U U U U U 4.>.2...U U U U U U U U U U U U U U U J v U U U ",
"U H l p L S L U U U U U U U U U U U U U U U U U U U ~ %.U U U U U U U U U R  .R  .,.| U U U U U U U E %.~ T T ( U U U U U U U U ",
"H H H H l l L U U U U K U U U U U U U U U U U K U U U ~ U U U K U U U U R X.<.@.E | U U U U U U U U U ~ %.E ) +.U U U U U U U U ",
"l a l C C s S L U H U R ~ U U U U U U U U H U H U U U U U U H y U U U U  .<.>.3.U U U U U U U U U U U U E ~ +.] U ~ U U U U U U ",
"H G a l A 3 s U L v ~ %.%.~ U U U U U U c H v H U U U U U U H o U U U U T @.4.=.U U U U U U U U U U U U U T ~ U ( +.~ U U U U U ",
"H U M . s F = M 9 D +.( U U U U U U U U U l H U U U U U U U U U y K U U U U U U U U U U U U U U U U U U =.] T U %.E U U U U U U ",
"T U H & l K M s & A ^ S U U U U U U U U K U U U U U U U U U U U = A U U U U U U U U U U U U U U U U U U ] %.E U ~ U U U U U U U ",
"U U U U U R j 1 H H L x l S U U U U U U U U U U U U U U U U U U K K U U U U U U U U U U U U U U U U U U ( %.R U U U U U U U U U ",
"U U U U ~ +./ o.U H U U e l S U U U U U U U U U U U U U U U U U K K U U U U U U U U U U U U U U U U U U T ~ U U U U U U U U U U ",
"H s s H T Q +.( S v H H   s F U s S U L U U U U U U U U U U U U U U U U U U U U U S l e l C U U U U U U U U U U U H l Z U U U U ",
"U Z t p K U Q U U S y H o q C l a U U L U U U U K U U H U U U U U U U U U U U U U U Z l w l J U U U H U U U U U U H H v U U U U ",
"U S $ 9 H H j H U H $ t k - V y = G U U U U R K z H S v H H U U U U U U U U U U L L S L O q K K a r l S U U U U U U U H U U U v ",
"l M . 8 U a a H H M . 7 U M s # M U U U U U H H Z v H U v U U U U U U U U U U U d d l U h $ A l 9 $ C U U U U U U U U U U U U H ",
"  y M = A 0 & M ( T ~ U U H ; M U U U U U U U S H U U U U U U U U U U U U U U U V = 5 0 K U K v & H U U U U U U U U U U S U U U ",
"o s H S 0 = M U #.| +.~ U U S L R H U U U U U v U U U U U U U U U U U U U U U U K M O X l U U K G U U U U U U U U U U z U L U U ",
"V U J U = M K U ] +.) R U U U U U U U U U U H U l H U U U U U U U U U U U U U U U U A A J K U U U H U U U U U U U U U H v L U U ",
"K U U U M U U U U ~ H U U U U U U U U U U U U S K U U U U U U U U U U U U U U U U U U U U U U U K U U U U U H H U U U U H U U U ",
"U U U U U U U U U U U U U U T H S U U U U U U U U U H l H H C a y K U U U U U U U U U U U U U U U H U U L v Z z U U U U U U U U ",
"U U U S U U U U U U U U U U H z H b U U U U U U U U U l l U s a & F U U U U U U U U U U U U U K I R U U U S v H U U U U K T U U ",
"U U K U U U U U U U U U U U K K v H U U U U U U U U U K a C a O J U U U U U U U U U U U U U U K U U U U U U S U U U U U U U U U ",
"U U U b U U U U U U U U U U U H U H U U U U U U U U U K o C s M U U U U U U U U U U U U U U K v U U U U U U U U U U U U U U U U ",
"U U H & K U U U U U R ..U U U U U U U U U U U U U U U U U U U U q F U K p a H U U U U U H G v H U U U U U U U U U U U U U U U U ",
"U U U G y K K U U R X.2.{ T U U U U U U U U U U U U U U U U U U O a H s 9 l H U U U U U H c H U U U U U H H U U H H U U U U U U ",
"U U U S = K U U U | <.:.,.{ U U U U U U U U U U U U U U U U U H M l H y $ C U U U U U U H H U U U U U U l H U K s l U H U U U U ",
"U U U U V K U U U R @.4...R U U U U U U U U U U U U U U U U U U M - M $ M U U U U U U U U U U U U U U U e l S v p p S U U U U U ",
"U U U U R ~ Y K U ~ ) U R @.4.&.U U U U l H U U U K s M U K p 0 U U U U U U U U U U U U H H l H =.4.@.W H s S l l U U U U U U U ",
"U U U U ~ +.) U ] %.%.~  .<.>.3.U U U U H l U U H H ; 7 U a 0 O U U U U U U U U U U U U H v H U 3.>.<. .H v S l U U U U U U U U ",
"U U U U T ) %.' *.] ) ~ R X.<.@.U U U U H H U U U S M O S s & M U U U U U U U U U U U U l H U U @.<.X.T U K U H U U U U U U U U ",
"U U U U U T ) %.-.) *.-.U T  .T U U U U l H U U U U A . G a M H U U U U U U U U U U U U H U U U T  .T U U U U U U U U U U U U U ",
"U U H U U U U U ~ %.~ U U U U U U U U U S l H U U U U U U Z U v l H U U U U U U U U U U U U U U U U U U U U U U U S S U U U U U ",
"H s l H U U U U U ~ U U U U U U U U U U U H U U U U U U l l S J s A U J S U U U U U U U U U U U U U U U U U U U U l l Z U U U S ",
"a a H U U U U U U U U U U U U U K U U U H c H U U U U U Z l r A 2 r J U l L U U U U U U U U U U U U U U U U U U U U l p A U U l ",
"t a H U U U U U U U U U U U U U v U U U U H l H U U U U L C $ r n $ V v s L U U U U U U U U U U U U U U U U U K x S Z l = C L d ",
"= F S H U U U U U H l H U U U U $ M U U U U U U U U U U U A = r U A 7 o U U U U U U U U U U F l U U U U U U U v V = g & K M & . ",
"M C l l U U U U U U H x U U U U F s H U U U U U U U U U U U A J H s = M U U U U U U U U U H b H U U U U U U U K U M , n M 2 n n ",
"= s H H U U U U U U U S U U U U M , C U U U U U U U U U U U U U U U S U U U U U U U U U H b H U U U U U U U U U U S F U j K V = ",
"C H U H U U U U U U U U U U U U H C U U U U U U U U U U U U U U U U U U U U U U U U U U U H U U U U U U U U U U U U K K K U U V "
};
