/* XPM */
static char *a79ac2ddc8424a80e3e3fb741d16e495mpm7Nk1QY4INwlBG[] = {
/* columns rows colors chars-per-pixel */
"64 64 173 2 ",
"   c None",
".  c #030302",
"X  c #040A06",
"o  c #090A07",
"O  c #0C0E09",
"+  c #0E100B",
"@  c #001D0F",
"#  c #12150E",
"$  c #161910",
"%  c #191D13",
"&  c #1D2216",
"*  c #1F2518",
"=  c #212619",
"-  c #242A1B",
";  c #292F1F",
":  c #2A301F",
">  c #2D3422",
",  c #333A26",
"<  c #005A2F",
"1  c #035C32",
"2  c #085F36",
"3  c #3F4D31",
"4  c #066135",
"5  c #096137",
"6  c #0B6439",
"7  c #006F39",
"8  c #0E6A3D",
"9  c #12653E",
"0  c #11693F",
"q  c #404930",
"w  c #455235",
"e  c #505C3C",
"r  c #0E6F41",
"t  c #146C42",
"y  c #1C6C45",
"u  c #1E6E48",
"i  c #156740",
"p  c #0F7041",
"a  c #027D40",
"s  c #0C7D45",
"d  c #147244",
"f  c #187347",
"g  c #1B764A",
"h  c #147B49",
"j  c #1D794D",
"k  c #107A46",
"l  c #1F7F50",
"z  c #226F4A",
"x  c #24714C",
"c  c #24784C",
"v  c #2C7652",
"b  c #217E51",
"n  c #2E7855",
"m  c #347C59",
"M  c #397F5D",
"N  c #317A57",
"B  c #535A49",
"V  c #5C6945",
"C  c #018D46",
"Z  c #0F844A",
"A  c #0D8A4C",
"S  c #0A8246",
"D  c #11824A",
"F  c #14894F",
"G  c #1A814E",
"H  c #009047",
"J  c #00954A",
"K  c #0A944E",
"L  c #08984F",
"P  c #06984D",
"I  c #188750",
"U  c #1A8B54",
"Y  c #138C50",
"T  c #0C9952",
"R  c #139453",
"E  c #189757",
"W  c #129B56",
"Q  c #1F9459",
"!  c #149D58",
"~  c #1B9E5C",
"^  c #238354",
"/  c #298357",
"(  c #268959",
")  c #2B8D5D",
"_  c #218856",
"`  c #37865F",
"'  c #25925C",
"]  c #2B915E",
"[  c #31925F",
"{  c #28A95B",
"}  c #3E8261",
"|  c #338D61",
" . c #2B9561",
".. c #249D61",
"X. c #2C9C64",
"o. c #329565",
"O. c #319964",
"+. c #339F69",
"@. c #3D9B6C",
"#. c #24A263",
"$. c #2AA265",
"%. c #33A56B",
"&. c #3AA46F",
"*. c #788A5A",
"=. c #438566",
"-. c #4D8C6E",
";. c #559275",
":. c #5A9478",
">. c #589377",
",. c #5CC170",
"<. c #76CD7B",
"1. c #899D67",
"2. c #8DA169",
"3. c #96AB70",
"4. c #9CB273",
"5. c #A1B877",
"6. c #A3BC7A",
"7. c #A9C27E",
"8. c #659C82",
"9. c #6EA189",
"0. c #72A48D",
"q. c #87B68E",
"w. c #8FB6A4",
"e. c #9DCF85",
"r. c #8FD985",
"t. c #91D587",
"y. c #ACC581",
"u. c #ACCB83",
"i. c #B2CD85",
"p. c #B5CF88",
"a. c #A8D889",
"s. c #B5D389",
"d. c #BAD58B",
"f. c #B2DE8E",
"g. c #BCDB8E",
"h. c #A3E38D",
"j. c #ACE791",
"k. c #BDED98",
"l. c #B4E894",
"z. c #ACCEAD",
"x. c #B9D6B8",
"c. c #C0DC8F",
"v. c #C1DE90",
"b. c #C5E393",
"n. c #C8E696",
"m. c #C4ED99",
"M. c #CDEB99",
"N. c #C6E997",
"B. c #D1EE9B",
"V. c #C3F29B",
"C. c #CCF39D",
"Z. c #D4F49E",
"A. c #CFF7A0",
"S. c #D5F6A0",
"D. c #D4FAA1",
"F. c #D9FAA2",
"G. c #DBFBA4",
"H. c #DBFDA4",
"J. c #DCFDA5",
"K. c #DCFDA4",
"L. c #DDFEA5",
"P. c #DCFEA5",
"I. c #DEFEA5",
"U. c #DEFFA6",
"Y. c #DFFFA6",
"T. c #DEFEA6",
"R. c #DDFDA5",
"E. c #D8F7A2",
"W. c #DDF0CE",
"Q. c #E1EDCE",
"!. c #E3EFD0",
"~. c #E4F3D2",
"^. c #F3FEE1",
/* pixels */
"                                                                                                                                ",
"                                                                                                                                ",
"                                                                                                                                ",
"                                                                                                                                ",
"                                                                                                                                ",
"                                                                                                                                ",
"                                                                                                                                ",
"                                                                                                                                ",
"                                                                                                                                ",
"                                                                                                                                ",
"                                                                                                                                ",
"                                                                                                                                ",
"                                                                                                                                ",
"                                                                                                                                ",
"                                      5 5                                                                                       ",
"                                    1 1 < < 1 9                                                                                 ",
"                                  1 < D J J ) 6 < 4 9                                                                           ",
"                              5 1 f H J J J J J H ] 8 < 1 6                                                                     ",
"                          9 1 1 U J J J J J J J J J J J O.N.U.^.~.x.                                                            ",
"                        1 1 ^ J J J J J J J J J J J J J C.K.U.H.U.U.^.W.z.                                                      ",
"                    1 < f H J J J J J J J J J J J J { H.U.U.U.U.U.U.U.U.G.^.W.z.                                                ",
"                4 < < O.J J J J J J J J J J J J J { D.K.Y.U.K.G.U.U.U.U.U.U.Y.U.f.q.}                                           ",
"              1 < 0 J J J J J J J J J J J J J J <.K.K.K.Y.K.U.U.U.Y.U.U.U.F.U.U.U.U.U.a.5 v                                     ",
"              5 < < < < 6 k H J J J J J J J P <.U.H.H.Y.Y.H.Y.Y.U.Y.U.Y.U.K.G.U.U.U.U.t.j 1 1 5 x                               ",
"              x 0 #.] 6 1 < < < 4 k C J J P j.Y.U.U.U.U.K.Y.Y.Y.Y.Y.U.Y.G.K.U.U.U.F.,.J J J R b 1 1 2 9                         ",
"              9 1 J J J J P $.g 4 < < < 1 i.c.Z.F.U.U.U.U.U.Y.U.Y.Y.U.U.U.K.Y.K.H.r.J J J J J J J K b 1 1 1 6                   ",
"              2 < < 1 6 7 P J J J T $.^ 4 c.7.4.6.i.n.E.Y.U.U.Y.U.Y.U.Y.U.U.U.U.j.P J J J J J J J J J J K b 4 < 1               ",
"              v 5 I 5 < < < 1 6 s H J H J C.U.U.M.d.7.5.7.d.B.U.K.Y.Y.Y.U.U.H.l.J J J J J J J J J J J J J J C 7 N               ",
"              v 6 J J J T ( 6 < < < < 6 S C.Y.Y.U.U.Y.Z.n.p.6.6.i.c.Z.K.U.Z.V.L J J J J J J J J J J J J J H 7 j 1               ",
"              9 1 a H J J J J J P ( 4 4 < Z.Y.Y.K.K.Y.Y.I.Y.G.Z.c.i.6.7.6.a.c b ..J J J J J J J J J J J J 8 6 6 ;.              ",
"              6 < < 1 5 d 7 J J J J J J L A.U.U.U.U.U.K.K.Y.K.U.Y.Y.H.M.Z.B.< < 1 < 1 t O.! J J J J J H 8 1 i i 1               ",
"              x 0 I f 4 < < 4 4 d 7 P J J Z.U.U.. Y.U.i.6.Y.K.Y.U.Y.K.K.Z.C.J J Q d 4 < 1 1 1 6 ( X.! 5 1 5 1 < y               ",
"              6 4 H J J H U j 4 < < < 1 0 V.Z.$ = n.& . . K.G.M.G.Y.Y.Y.Z.Z.J J J J J J X.j 5 < < < < < z < < 6 z               ",
"              2 < < 4 d Z J J J H E j 5 < 7.. n.O Z.> Y., 7.> . & U.K.Y.H.G.1 8 U H J J J J J J J Z < 5 1 1 i 2 M               ",
"              6 0 +.j 4 1 < 5 f A J J J J C.K.G.o G.q Y.O M.= s., 7.: Y.H.k.4 < < < 1 4 p 7 J J J ! 1 2 < 2 9 x =.              ",
"              6 4 J J J W O.d 4 < < 6 h C U.U.Y.: B.= G.+ Y.& 5., v.e K.N.X J J C D 6 1 < < 4 4 0 F 2 N m 2 2 9 n               ",
"              9 d J J J J J J J ~ [ t 1 < H.K.U.+ G.= Z.V Y.% 3.: Z.$ u.3 C.C J J J J J J F t 1 < < < 9 < < y 6 x               ",
"              6 < 1 0 ( W J J J J J J J #.H.U.U.B.G., # - Y.- 1.& H.& ; u.H.4 1 6 s C J J J J J J U < 6 1 x n >.2               ",
"              1 4 ^ 6 1 < 4 d ' J J J J J D.H.U.U.Y.K.q B.2.$ $ - Y.# 7.w h.[ 0 1 1 < 1 6 s C J J ! 1 m n 2 6 9 2               ",
"              u 4 J J P Q j 6 1 < 4 j Q J Z.K.U.H.Y.n.. % . y.G.K.Y.. Z.s.@ J J J T ] d 1 1 < 1 6 h 4 ` 6 x 9 1 <               ",
"              m 1 K J J J J J T ' f 4 1 1 F.H.U.G.Z.. $ d.= & c.K.Y.U.K.Z.e.I H J J J J J T  .f 1 < < 9 M 1 1 1 5               ",
"              v < 1 1 t ( K J J J J J ! ( C.C.U.B.# G.% M.& H.= K.Y.K.K.H.C.< < 1 t I H J J J J J ~ 1 x < 6 y 2 1               ",
"              :.d K b 8 < < 4 t _ P J J J k.Z.U.B.. Y.% Z.& K.U.U.U.U.U.D.h.P ' j 5 1 < 4 d F J J ! 1 z 2 2 M y 1               ",
"              i t J J J J E G 6 1 < 1 t U F.H.U.U.. M.& B.& U.K.U.K.H.K.H.k.J J J J P  .f 4 1 1 5 f 1 :.=.M z 1 1               ",
"              i 6 J J J J J J J J ~ b 6 1 m.G.U.U.*.. = g.% Y.U.U.U.G.G.K.l.C J J J J J J J T ] t 1 1 v 9 1 2 y 1               ",
"              y 6 J J J J J J J J J J J J k.E.U.U.K.7.. w o M.U.U.U.Y.U.G.f.< 1 d D H J J J J J J ! 1 t 2 9 z 2 1               ",
"              :.1 / @.%.W J J J J J J J J k.F.U.Y.U.M.; Z.# # M.U.K.Y.K.Z.h.$.^ 5 1 < 4 d S J J J ! 1 2 1 1 9 m 9               ",
"                  6 i 4 4 6 | &.$.P J J J V.U.U.Y.U.n.: Z.% U.o G.U.Y.I.Z.k.J J J T %.j 4 1 < 5 k F 1 :.z } m 5 <               ",
"                          8.x y 5 6 t | &.V.K.U.U.$ b.> Z.$ B.O U.U.U.U.G.N.1 d Z H H J J ~ o.d 1 1 < y 2 z 1 1 u               ",
"                                    0.x 9 s.M.G.U.p.= , E.# = G.H.H.U.H.F.A.b 5 1 1 4 d S C J J J &.1 2 2 6 2 x 9.              ",
"                                              Q.Q.n.6.X - . K.F.U.A.U.H.F.k.J J T X.j 5 1 1 4 8 s Y 1 M 6 1 9 } x               ",
"                                                      B 5.$ G.Y.U.U.H.F.D.H.J J J H J J ! O.j 5 1 1 1 y i z 1 1 `               ",
"                                                              ~.b.M.Z.E.C.U.@.$.P H J J J J J J ~  .1 8.6 1 < x                 ",
"                                                                      !.!.H.1 1 1 8 t @.~ J J J J ! 1 1 < 1 =.                  ",
"                                                                                  w.-.y 5 6 y | &.~ < 1 1 9.                    ",
"                                                                                            :.x 4 1 1 2                         ",
"                                                                                                                                ",
"                                                                                                                                ",
"                                                                                                                                ",
"                                                                                                                                ",
"                                                                                                                                ",
"                                                                                                                                ",
"                                                                                                                                ",
"                                                                                                                                "
};
