/* XPM */
static char *_4c5d834279b47d898bdc3c4d94d9cbaNXT0ZAZfMBsPkLJG[] = {
/* columns rows colors chars-per-pixel */
"64 64 231 2 ",
"   c None",
".  c black",
"X  c #010101",
"o  c #010202",
"O  c #020202",
"+  c #020303",
"@  c gray1",
"#  c #040303",
"$  c #030304",
"%  c #030405",
"&  c #040404",
"*  c #040405",
"=  c gray2",
"-  c #040506",
";  c #050506",
":  c #050606",
">  c #060606",
",  c #060607",
"<  c #070707",
"1  c #070709",
"2  c gray3",
"3  c #090808",
"4  c #090909",
"5  c #090A0A",
"6  c #0B0B0B",
"7  c #0A0B0C",
"8  c #0A0C0C",
"9  c #0C0C0C",
"0  c gray5",
"q  c #0E0D0D",
"w  c #0E0E0E",
"e  c #120F10",
"r  c #0C1014",
"t  c #101010",
"y  c #101011",
"u  c #111111",
"i  c gray7",
"p  c #191617",
"a  c #22141C",
"s  c #2E1C1D",
"d  c #301F1F",
"f  c #311F1F",
"g  c #291A21",
"h  c #311F20",
"j  c #311F21",
"k  c #301E22",
"l  c #202020",
"z  c #232427",
"x  c #2B2D2F",
"c  c #312021",
"v  c #312121",
"b  c #322020",
"n  c #332120",
"m  c #322021",
"M  c #322121",
"N  c #332121",
"B  c #332221",
"V  c #302022",
"C  c #302122",
"Z  c #332122",
"A  c #332123",
"S  c #322222",
"D  c #332222",
"F  c #332323",
"G  c #342121",
"H  c #342221",
"J  c #342222",
"K  c #352322",
"L  c #342323",
"P  c #352323",
"I  c #362322",
"U  c #362423",
"Y  c #342224",
"T  c #362424",
"R  c #372525",
"E  c #382525",
"W  c #382726",
"Q  c #332429",
"!  c #2E2F31",
"~  c #2D2A37",
"^  c #353535",
"/  c #4D383B",
"(  c #414448",
")  c #584144",
"_  c #594245",
"`  c #5A4245",
"'  c #5A4246",
"]  c #5A4346",
"[  c #5B4346",
"{  c #594646",
"}  c #5D4448",
"|  c #5F4448",
" . c #455671",
".. c #485A76",
"X. c #495B76",
"o. c #495B77",
"O. c #4A5C78",
"+. c #4B5D78",
"@. c #4B5D79",
"#. c #4C5E79",
"$. c #63666B",
"%. c #676A7A",
"&. c #696B7C",
"*. c #6A6D7E",
"=. c #6B6E7F",
"-. c #D2AF27",
";. c #D2AF29",
":. c #D2AF2A",
">. c #D2AF2B",
",. c #D3B026",
"<. c #D3B027",
"1. c #5D7799",
"2. c #5E7899",
"3. c #5E789A",
"4. c #5F799A",
"5. c #5F799B",
"6. c #5F7A9C",
"7. c #5F7A9E",
"8. c #607A9C",
"9. c #617B9C",
"0. c #637B9E",
"q. c #627D9F",
"w. c #657E9F",
"e. c #6B7F9C",
"r. c #617CA0",
"t. c #627CA0",
"y. c #627DA0",
"u. c #627DA1",
"i. c #637EA1",
"p. c #647FA2",
"a. c #657FA2",
"s. c #B37C89",
"d. c #B47D8A",
"f. c #71829F",
"g. c #6580A3",
"h. c #6E85A3",
"j. c #6983A5",
"k. c #B7818C",
"l. c #BD9691",
"z. c #BF9B91",
"x. c #BE9B93",
"c. c #BF9E96",
"v. c #C28F95",
"b. c #C58E95",
"n. c #C58F95",
"m. c #C59096",
"M. c #C19D94",
"N. c #C09D95",
"B. c #C19D95",
"V. c #C19E95",
"C. c #C29E95",
"Z. c #C39E95",
"A. c #C19E96",
"S. c #C19F96",
"D. c #C19E97",
"F. c #C29E96",
"G. c #C29F96",
"H. c #C39F96",
"J. c #C39E97",
"K. c #C29F97",
"L. c #C39F97",
"P. c #C49C96",
"I. c #C59D97",
"U. c #C49F96",
"Y. c #C49F97",
"T. c #C69F96",
"R. c #C79399",
"E. c #C9979D",
"W. c #C49F98",
"Q. c #C49E99",
"!. c #C59F99",
"~. c #C69E98",
"^. c #C69F99",
"/. c #C79F99",
"(. c #C69F9A",
"). c #C7A187",
"_. c #C2A096",
"`. c #C3A096",
"'. c #C3A097",
"]. c #C2A197",
"[. c #C4A097",
"{. c #C7A197",
"}. c #C2A098",
"|. c #C3A098",
" X c #C2A099",
".X c #C2A29B",
"XX c #C4A098",
"oX c #C5A098",
"OX c #C4A198",
"+X c #C5A198",
"@X c #C4A199",
"#X c #C5A199",
"$X c #C4A19A",
"%X c #C7A09A",
"&X c #C6A29A",
"*X c #C6A39B",
"=X c #C4A39C",
"-X c #C8A09A",
";X c #C8A09B",
":X c #C8A19B",
">X c #C9A29C",
",X c #C9A29D",
"<X c #CAA49F",
"1X c #B5C3E0",
"2X c #B5C3E1",
"3X c #B6C3E1",
"4X c #B6C4E0",
"5X c #B7C4E1",
"6X c #B4C4E2",
"7X c #B7C5E2",
"8X c #B8C4E0",
"9X c #B9C5E1",
"0X c #B8C6E1",
"qX c #BAC7E2",
"wX c #B8C6E4",
"eX c #B9C7E5",
"rX c #BBC8E2",
"tX c #BCC8E3",
"yX c #BAC8E5",
"uX c #BAC8E6",
"iX c #BBC8E6",
"pX c #BBC9E6",
"aX c #BCC9E7",
"sX c #BCCAE7",
"dX c #BECBE7",
"fX c #CDC7CE",
"gX c #CEC8CF",
"hX c #CFC9D0",
"jX c #D2CCD3",
"kX c #D4CED5",
"lX c #D6D1D9",
/* pixels */
"                                                                                                                                ",
"                                                  Y J K Y Y W T T Y A                                                           ",
"                                                T n J n j n n n n n j n                                                         ",
"                                            T n n k B.B.L.c.c.L.|.c.n n n A                                                     ",
"                                            n b n L.c.|.|.|.L.L.L.|.B.n n g                                                     ",
"                                            n b n L.L.L.|.|.|.|.|.L.XXg n n                                                     ",
"                                        n n g J A L.L.L.|.|.|.L.L.L.L.A j n n W                                                 ",
"                                        j n n B.L.L.B.L.|.L.|.L.|.B.L.B.L.n n J                                                 ",
"                                        J n n L.XXXX|.[.XXB.B.XXL.B.B.XXB.j J J                                                 ",
"                                        Y n s B.XXB._.XXXXXXXXXXL.L.L.|.Y.f f J                                                 ",
"                                        J n B.L.|.B.XXB.B.XXXXB.L.L.L.L.XXc.J J                                                 ",
"                                        J n XX|._.XXB.XXXXB.XXB.L.L.L.|.B.Y.J J                                                 ",
"                                      J b b B.B.B.[.Y.B.B.[.[.XXW.L.c.|._.B.J j n                                               ",
"                                      n.b J XX[.XX[.XXXXY._.B.W.L.L.L.|.XXXXJ n v.                                              ",
"                                      n.b J _.[.XX[.|.[.M.[.[._.L.L.L.L.L.=Xn J n.                                              ",
"                                      m.n J [.J J J J K M._.[.:X{ a Q g / |.W J n.                                              ",
"                                      n.B._.XXhX*.n %.jX=X_.XXXXkX=.Q %.kX_.XXXXn.                                              ",
"                                      n.B.XX|.hX*.J *.lX|.|.XXB.gX&.I 2.kX|.XXB.n.                                              ",
"                                      n.n.W.[.B.XXB.B.XX|.|._.B.{.Z.B.XX_.|._.n.m.                                              ",
"                                        n.Y._.XXB.XXXXXX|.|.|.|.[.Y.W._.XX_.|.n.                                                ",
"                                        E.n.Y.Y.XXXXXXB.XX_.XXB.[.XXXX[.XXW.n.n.                                                ",
"                                          n.n./.XXB.XXXXB.|.L.Y.[.[.[.XXXXm.n.                                                  ",
"                                              n.XX[.L.W.XXW.s.} [ [ ) [ } )                                                     ",
"                                                m.B.|.W.k.d.s.) } { | ) ) )                                                     ",
"                                                  n.XX[.Y.Y.W.W.Y.W.XXR.                                                        ",
"                                                  < n.W.W.Y.W.W.W.Y.n.                                                          ",
"                                                  @ z n.n.n.n.n.n.n.                                                            ",
"                                                  @ wX@ < w e p $.&                                                             ",
"                                                  @ qX5 @ , @ 1 h.,                                                             ",
"                                                  @ tX, @ @ 5 8 0.,                                                             ",
"                                                  @ rXw @ @ , 5 0.@                                                             ",
"                                                  @ qX5 @ @ , w 0.x                                                             ",
"                                                  @ qX, @ @ @ @ y.f.l ^                                                         ",
"                                                  @ qX, @ @ @ @ r.7.g.(                                                         ",
"                                                  @ 9X& @ @ # & eXg.7.y.x                                                       ",
"                                                  @ 9X/.W.Y.>X>XuXuXj.r.w.,                                                     ",
"                                                  @ 5X:X/./././.uXuXdXg.g.@                                                     ",
"                                                  @ wX>X/.>X/./.dXuXuXy.y.u                                                     ",
"                                                  & 5X>X/.>X/./.uXuXuXuXq.,                                                     ",
"                                                  + 9XW././././.dXuXwX6Xr.@                                                     ",
"                                                  @ 5XW././././.uXuXwXy.7.,                                                     ",
"                                                  @ 5X:.-.,.-.;.uXwXt.t.@                                                       ",
"                                                  , 6X:.,.-.-.;.wX1Xq.@                                                         ",
"                                                  @ @ l./.Y.Y.I.w , @                                                           ",
"                                                  , 3.y./.W.,.[.y.O.@                                                           ",
"                                                  @ 8.0.f.W.).r.t.O.w                                                           ",
"                                                  , 1.t.y.t.r.r.y.O.1                                                           ",
"                                                  + q.t.t.t.r.r.y.O.,                                                           ",
"                                                  @ 3.0.r.r.r.r.y.O.,                                                           ",
"                                                  , 7.y.r.r.r.r.y.O.@                                                           ",
"                                                  % 3.0.r.r.r.r.y.O.&                                                           ",
"                                                  % 3.r.r.r.r.r.y.O.,                                                           ",
"                                                  , 3.y.r.r.r.r.y.#.+                                                           ",
"                                                  @ 3.y.r.r.r.r.y.#.@                                                           ",
"                                                  @ 1.7.r.r.r.r.y.O.@                                                           ",
"                                                  , 3.0.r.r.r.r.p...@                                                           ",
"                                                  @  .X.........X.X.r @ @                                                       ",
"                                                  @ @ @ % @ @ @ @ @ @ @ @                                                       ",
"                                                  @ , 9 , @ @ , w @ @ @ @                                                       ",
"                                                  @ & 5 @ @ @ 5 u 5 @ @ ,                                                       ",
"                                                                                                                                ",
"                                                                                                                                ",
"                                                                                                                                ",
"                                                                                                                                "
};
