/* XPM */
static char *a64adfcf122f4181d8d0b5311971e3ecDZQqqtGfB3lly8E6[] = {
/* columns rows colors chars-per-pixel */
"64 64 6 1 ",
"  c #A65F00",
". c #B35F00",
"X c #BC7004",
"o c #898989",
"O c gray56",
"+ c #959595",
/* pixels */
"+XXXXXXXXXXXXXXXXoXXXXXXXXXXXXXXXOXXXXXXXXXXXXXXXXoXXXXXXXXXXXXX",
"+X           ...XoX       .  ...XOX          .   XoX           X",
"oX .  . .      .XOX .  .       .XOX  .       .   X+X   ..      X",
"oX         .    XOX   .   .   . XOX.     .      .XOX          .X",
"oX  .           X+X  .          XOX             .XOX     .    .X",
"oX.   ...       X+X             X+X            ..XOX        ...X",
"+XXXXXXXXXXXXXXXX+XXXXXXXXXXXXXXXoXXXXXXXXXXXXXXXX+XXXXXXXXXXXXX",
"+++++++++OOOOOOOO++OOO++++++++++ooo+++++++++++++oooOOOOOOOOOO+++",
"XXXXXXXXXXXXXX+XXXXXXXXXXXXXXXX+XXXXXXXXXXXXXXX+XXXXXXXXXXXXXXXO",
"X         ...X+X...           X+X..           X+X...          XO",
"X   ..      .X+X.       ..    X+X.  ...       X+X.      ..  . Xo",
"X.  .       .X+X.   ...      .X+X.           .X+X.  ..      . XO",
"X.           X+X             .X+X       ...  .X+X        ..   XO",
"X...         XoX           ...X+X          ...X+X             XO",
"XXXXXXXXXXXXXXoXXXXXXXXXXXXXXXX+XXXXXXXXXXXXXXX+XXXXXXXXXXXXXXXO",
"++++++++OOOOooo+++++++++++++++OOOO++++++++OOOOO++++++++++OOO++OO",
"+XXXXXXXXXXXXXXXXX+XXXXXXXXXXXXXXXXX+XXXXXXXXXXXXXXXX+XXXXXXXXXX",
"+X           ... X+X     .    .....XoX...         ..XoX      ..X",
"+X...          ..X+X..    .       .XoX.       ..   .X+X   .   .X",
"+X.     ...     .X+X.             .XOX.     .      .X+X        X",
"+X.             .XOX.     ..       XOX             .X+X.       X",
"+X...            XOX..             X+X             .X+X...     X",
"+XXXXXXXXXXXXXXXXXOXXXXXXXXXXXXXXXXX+XXXXXXXXXXXXXXXX+XXXXXXXXXX",
"++++++OOOOOOO++++oooooo++++++++oo++++ooo++++OOOO+++++ooo++++++++",
"XXXXXXXXXXXXXX+XXXXXXXXXXXXXXXXoXXXXXXXXXXXXXXX+XXXXXXXXXXXXXXXo",
"X         ...X+X..            X+X...        ..XOX...          Xo",
"X           .X+X.       ... . X+X.       .   .XOX.      ...  .Xo",
"X.    ..     X+X          ....X+X.           .XOX.  ..       .X+",
"X.          .X+X ..          .X+X  ...        X+X            .X+",
"X...      ...X+X              X+X             X+X          ...X+",
"XXXXXXXXXXXXXX+XXXXXXXXXXXXXXXXOXXXXXXXXXXXXXXX+XXXXXXXXXXXXXXXO",
"O++++OOOOOO++++++ooo++++++++++OO++++++++++++ooooo++++OOOOO+OOOOO",
"OXXXXXXXXXXXXXXXXXXoXXXXXXXXXXXXXXX+XXXXXXXXXXXXXXXX+XXXXXXXXXXX",
"OX                XoX             X+X              XOX         X",
"+X                XOX             X+X              XOX         X",
"oX                XOX             X+X              XOX         X",
"oX                X+X             X+X              X+X         X",
"oX                X+X             XoX              X+X         X",
"oXXXXXXXXXXXXXXXXXX+XXXXXXXXXXXXXXXoXXXXXXXXXXXXXXXXOXXXXXXXXXXX",
"oo++++++++++++++oo++++ooo++++++++++oo++++++++ooo++++OOOO+++++++O",
"XXXXXXXXXXXXX+XXXXXXXXXXXXXXXX+XXXXXXXXXXXXXXXX+XXXXXXXXXXXXXXXO",
"X..    ..   XOX     .....    XOX..          ..X+X        .... XO",
"X.       .  XOX.             XoX.            .X+X           ..XO",
"X.   ..     XoX.             XoX. ...     .. .X+X.       .   .XO",
"X          .XoX.       ...  .XoX     ...      X+X.       ..   X+",
"X         ..XoX....      ....XoX              X+X...          X+",
"XXXXXXXXXXXXX+XXXXXXXXXXXXXXXX+XXXXXXXXXXXXXXXX+XXXXXXXXXXXXXXXO",
"OOOO++ooo+++++++++++++OOOO+++++++oooo+++++++++oooo+++++++++OOOOO",
"+XXXXXXXXXXXXXXX+XXXXXXXXXXXXXXXX+XXXXXXXXXXXXXXXXXX+XXXXXXXXXXX",
"+X..        ...X+X..         .. X+X..              XOX ..      X",
"+X.           .XoX.           . XOX.      ..       XoX..  ..   X",
"OX.            XoX            . XOX.       ..      XoX    .    X",
"OX.          . X+X              XOX              ..X+X     ..  X",
"OX...       .. X+X...         ..XOX             ...X+X.        X",
"OXXXXXXXXXXXXXXX+XXXXXXXXXXXXXXXXOXXXXXXXXXXXXXXXXXX+XXXXXXXXXXX",
"O++++OOOO++++++++++++ooo++++++++++++++OOOOO+++++++++++++++++++oo",
"XXXXXXXXXXXXX+XXXXXXXXXXXXXXXX+XXXXXXXXXXXXXXXX+XXXXXXXXXXXXXXXo",
"X.          X+X        ....  XOX           .. X+X             Xo",
"X.          XoX              XOX  ...       ..X+X  .          Xo",
"X           XoX       ...    XOX              XOX           . XO",
"X     ....  XoX.             XOX.      ...    XOX.        ... XO",
"X           X+X....          XOX...           XOX..           XO",
"XXXXXXXXXXXXX+XXXXXXXXXXXXXXXXOXXXXXXXXXXXXXXXX+XXXXXXXXXXXXXXXO",
"+++ooo+++++++++++++++++oooOOOOoo++OOOOO+++++++++++++++ooo++++++O"
};
